<?xml version="1.0" standalone="no"?><!DOCTYPE svg PUBLIC "-//W3C//DTD SVG 1.1//EN" "http://www.w3.org/Graphics/SVG/1.1/DTD/svg11.dtd"><svg xmlns:xlink="http://www.w3.org/1999/xlink" xmlns="http://www.w3.org/2000/svg" version="1.1" width="200" height="200" viewBox="0 0 200 200"><defs><style type="text/css"><![CDATA[
@font-face {
  font-family: "ifont";
  src: url("//at.alicdn.com/t/font_1442373896_4754455.eot?#iefix") format("embedded-opentype"), url("//at.alicdn.com/t/font_1442373896_4754455.woff") format("woff"), url("//at.alicdn.com/t/font_1442373896_4754455.ttf") format("truetype"), url("//at.alicdn.com/t/font_1442373896_4754455.svg#ifont") format("svg");
}

]]></style></defs><g class="transform-group"><g transform="scale(0.1953125, 0.1953125)"><path d="M919.389273 235.245815 787.678509 103.59031 419.227903 468.832851l132.974547 131.998313L919.389273 235.245815zM349.770995 666.011676l172.121126-41.715077L395.761445 499.149321 349.770995 666.011676zM1001.974177 48.40136 975.571854 22.00927c-29.330002-29.345352-76.267011-29.345352-105.594967 0l-50.083675 49.64877 131.639133 131.582851 50.442856-50.220798C1031.313389 124.661208 1031.313389 77.734432 1001.974177 48.40136L1001.974177 48.40136zM845.608896 874.981035c0 11.117199-9.04398 20.162202-20.161179 20.162202l-94.392834 0-37.799908 0L164.005104 895.143237c-11.116175 0-20.161179-9.04398-20.161179-20.162202L143.843925 140.956336c0-11.116175 9.04398-20.162202 20.161179-20.162202l512.173962 0L676.179066 39.018665 164.005104 39.018665c-56.202023 0-101.932554 45.730531-101.932554 101.93767L62.07255 874.981035c0 56.20714 45.725414 101.932554 101.932554 101.932554l529.249873 0 37.799908 0 94.392834 0c56.20714 0 101.93767-45.725414 101.93767-101.932554L927.385388 382.934482l-81.776492 0L845.608896 874.981035 845.608896 874.981035zM845.608896 874.981035" fill="#969696"></path></g></g></svg>