<?xml version="1.0" standalone="no"?><!DOCTYPE svg PUBLIC "-//W3C//DTD SVG 1.1//EN" "http://www.w3.org/Graphics/SVG/1.1/DTD/svg11.dtd"><svg xmlns:xlink="http://www.w3.org/1999/xlink" xmlns="http://www.w3.org/2000/svg" version="1.1" width="200" height="200" viewBox="0 0 200 200"><defs><style type="text/css"><![CDATA[
@font-face {
  font-family: "ifont";
  src: url("//at.alicdn.com/t/font_1442373896_4754455.eot?#iefix") format("embedded-opentype"), url("//at.alicdn.com/t/font_1442373896_4754455.woff") format("woff"), url("//at.alicdn.com/t/font_1442373896_4754455.ttf") format("truetype"), url("//at.alicdn.com/t/font_1442373896_4754455.svg#ifont") format("svg");
}

]]></style></defs><g class="transform-group"><g transform="scale(0.1953125, 0.1953125)"><path d="M833.492417 650.176946c28.195147 0 35.312437-7.035389 35.312437-34.55814 0-15.938322-11.556117-28.975733-23.379171-38.120324l-2.238625-2.193124c-39.307381-29.748231-80.327604-58.084934-127.485339-75.703741 59.978766-50.38726 98.157735-125.023256 98.157735-208.445905 0-151.658241-125.689585-274.641052-280.653185-274.641052-154.967644 0-280.614762 122.982811-280.614762 274.641052 0 83.422649 38.17998 158.058645 98.136502 208.445905C159.304348 571.471183 23.08089 752.619818 22.960566 965.410516l0 0.098079c0.120324 27.483316 12.44186 47.973711 40.473205 47.973711 28.26997 0 30.27907-19.867543 30.348837-47.322548 0-220.313448 135.287159-428.426694 439.446916-423.491405 92.308392 1.493428 200.474216 36.242669 266.427705 90.006067 17.907988 14.60364 21.846309 14.793731 29.846309 17.038423L833.492417 650.176946 833.492417 650.176946zM533.229525 489.295248c-144.939333-0.286148-214.618807-101.742164-214.618807-198.138524 0-96.34277 79.609707-209.141557 214.902932-209.141557 157.211325 0 214.897877 113.959555 214.897877 210.313448C748.411527 388.740142 656.912032 492.938322 533.229525 489.295248L533.229525 489.295248 533.229525 489.295248zM626.780586 782.252781c0 27.581395 22.848332 40.763397 51.0273 40.763397L950.013145 823.016178c28.177958 0 51.026289-13.182002 51.026289-40.763397 0-27.619818-22.848332-38.109201-51.026289-38.109201L677.807887 744.143579C649.628918 744.14459 626.780586 754.632963 626.780586 782.252781L626.780586 782.252781 626.780586 782.252781zM950.013145 944.68453 677.807887 944.68453c-28.178969 0-51.0273 9.761375-51.0273 37.34277 0 27.619818 22.848332 37.649141 51.0273 37.649141L950.013145 1019.676441c28.171891 0 51.026289-10.051567 51.026289-37.649141C1001.039434 954.445905 978.185035 944.68453 950.013145 944.68453L950.013145 944.68453 950.013145 944.68453zM950.013145 944.68453" fill="#3cbaff"></path></g></g></svg>