<?xml version="1.0" standalone="no"?><!DOCTYPE svg PUBLIC "-//W3C//DTD SVG 1.1//EN" "http://www.w3.org/Graphics/SVG/1.1/DTD/svg11.dtd"><svg xmlns:xlink="http://www.w3.org/1999/xlink" xmlns="http://www.w3.org/2000/svg" version="1.1" width="200" height="200" viewBox="0 0 200 200"><defs><style type="text/css"><![CDATA[
@font-face {
  font-family: "ifont";
  src: url("//at.alicdn.com/t/font_1442373896_4754455.eot?#iefix") format("embedded-opentype"), url("//at.alicdn.com/t/font_1442373896_4754455.woff") format("woff"), url("//at.alicdn.com/t/font_1442373896_4754455.ttf") format("truetype"), url("//at.alicdn.com/t/font_1442373896_4754455.svg#ifont") format("svg");
}

]]></style></defs><g class="transform-group"><g transform="scale(0.1953125, 0.1953125)"><path d="M887.512954 959.335235 135.764592 959.335235c-27.742854 0-50.312896-22.570042-50.312896-50.311873L85.451696 157.275c0-27.742854 22.570042-50.312896 50.312896-50.312896l751.748363 0c27.741831 0 50.311873 22.570042 50.311873 50.312896l0 751.748363C937.824827 936.765193 915.254785 959.335235 887.512954 959.335235zM136.617006 908.169925l750.042511 0 0-750.042511-750.042511 0L136.617006 908.169925zM125.615441 512.682545l772.045641 0 0 51.16531-772.045641 0 0-51.16531ZM486.055606 150.073994l51.16531 0 0 772.045641-51.16531 0 0-772.045641ZM197.877231 295.630091l235.360426 0 0 51.16531-235.360426 0 0-51.16531ZM289.974789 203.532533l51.16531 0 0 235.360426-51.16531 0 0-235.360426ZM416.859641 800.754496 351.736435 735.63129 416.859641 670.509107 380.679627 634.329093 315.557444 699.452299 250.434238 634.329093 214.255247 670.509107 279.378453 735.63129 214.255247 800.754496 250.434238 836.933487 315.557444 771.811304 380.679627 836.933487ZM602.063737 295.630091l235.360426 0 0 51.16531-235.360426 0 0-51.16531ZM602.063737 658.629545l235.360426 0 0 51.16531-235.360426 0 0-51.16531ZM602.063737 770.676457l235.360426 0 0 51.16531-235.360426 0 0-51.16531Z" fill="#3cbaff"></path></g></g></svg>