<?xml version="1.0" standalone="no"?><!DOCTYPE svg PUBLIC "-//W3C//DTD SVG 1.1//EN" "http://www.w3.org/Graphics/SVG/1.1/DTD/svg11.dtd"><svg xmlns:xlink="http://www.w3.org/1999/xlink" xmlns="http://www.w3.org/2000/svg" version="1.1" width="200" height="200" viewBox="0 0 200 200"><defs><style type="text/css"><![CDATA[
@font-face {
  font-family: "ifont";
  src: url("//at.alicdn.com/t/font_1442373896_4754455.eot?#iefix") format("embedded-opentype"), url("//at.alicdn.com/t/font_1442373896_4754455.woff") format("woff"), url("//at.alicdn.com/t/font_1442373896_4754455.ttf") format("truetype"), url("//at.alicdn.com/t/font_1442373896_4754455.svg#ifont") format("svg");
}

]]></style></defs><g class="transform-group"><g transform="scale(0.1953125, 0.1953125)"><path d="M928 960l-34.88 0C894.144 954.688 896 949.696 896 944L896 384c0-44.16-31.808-80-71.104-80L611.584 304C598.336 304 586.624 309.184 576 316.288L576 144C576 99.84 544.192 64 504.896 64L135.104 64C95.808 64 64 99.84 64 144l0 800c0 5.696 1.856 10.688 2.88 16L32 960C14.4 960 0 974.4 0 992 0 1009.6 14.4 1024 32 1024l103.104 0 369.792 0 106.688 0 213.312 0L928 1024c17.6 0 32-14.4 32-32C960 974.4 945.6 960 928 960zM163.584 960C143.936 960 128 942.08 128 920L128 168C128 145.92 143.936 128 163.584 128l312.896 0C496.064 128 512 145.92 512 168l0 752C512 942.08 496.064 960 476.416 960L163.584 960zM611.584 960C591.936 960 576 942.08 576 920l0-496C576 401.92 591.936 384 611.584 384l184.896 0C816.064 384 832 401.92 832 424l0 496C832 942.08 816.064 960 796.416 960L611.584 960zM416 704l-192 0C206.4 704 192 718.4 192 736 192 753.6 206.4 768 224 768l192 0C433.6 768 448 753.6 448 736 448 718.4 433.6 704 416 704zM416 512l-192 0C206.4 512 192 526.4 192 544 192 561.6 206.4 576 224 576l192 0C433.6 576 448 561.6 448 544 448 526.4 433.6 512 416 512zM416 320l-192 0C206.4 320 192 334.4 192 352 192 369.6 206.4 384 224 384l192 0C433.6 384 448 369.6 448 352 448 334.4 433.6 320 416 320z" fill="#3cbaff"></path></g></g></svg>