<?xml version="1.0" standalone="no"?><!DOCTYPE svg PUBLIC "-//W3C//DTD SVG 1.1//EN" "http://www.w3.org/Graphics/SVG/1.1/DTD/svg11.dtd"><svg xmlns:xlink="http://www.w3.org/1999/xlink" xmlns="http://www.w3.org/2000/svg" version="1.1" width="200" height="200" viewBox="0 0 200 200"><defs><style type="text/css"><![CDATA[
@font-face {
  font-family: "ifont";
  src: url("//at.alicdn.com/t/font_1442373896_4754455.eot?#iefix") format("embedded-opentype"), url("//at.alicdn.com/t/font_1442373896_4754455.woff") format("woff"), url("//at.alicdn.com/t/font_1442373896_4754455.ttf") format("truetype"), url("//at.alicdn.com/t/font_1442373896_4754455.svg#ifont") format("svg");
}

]]></style></defs><g class="transform-group"><g transform="scale(0.1953125, 0.1953125)"><path d="M502.22798 748.418608l-265.284391-273.984957 67.999912-55.349194 153.399934 122.164061c62.863692-75.908402 202.423769-226.54016 394.962949-346.334129l16.209948 37.955224C692.791062 397.734195 548.090671 629.809684 502.22798 748.418608L502.22798 748.418608zM502.22798 748.418608M841.241026 427.192501c5.786051 24.783618 8.85407 50.612082 8.85407 77.157919 0 186.710149-151.357317 338.068489-338.068489 338.068489-186.709125 0-338.067465-151.357317-338.067465-338.068489 0-186.709125 151.35834-338.067465 338.067465-338.067465 45.457442 0 88.806772 8.993246 128.398341 25.262549l0-39.832058c-41.050874-14.971688-84.153575-22.552704-128.398341-22.552704-50.634596 0-99.773047 9.925523-146.052243 29.499239-44.681739 18.899325-84.802382 45.946606-119.246475 80.391721-34.445116 34.445116-61.492396 74.564736-80.391721 119.246475-19.573717 46.279196-29.499239 95.417647-29.499239 146.052243s9.925523 99.773047 29.499239 146.052243c18.898302 44.681739 45.946606 84.802382 80.391721 119.247498 34.444092 34.444092 74.564736 61.492396 119.246475 80.391721 46.279196 19.57474 95.417647 29.499239 146.052243 29.499239s99.773047-9.9245 146.052243-29.499239c44.681739-18.899325 84.803406-45.946606 119.247498-80.391721s61.492396-74.56576 80.391721-119.247498c19.57474-46.279196 29.499239-95.417647 29.499239-146.052243 0-26.183568-2.676074-51.961888-7.947377-77.157919L841.241026 427.192501zM841.241026 427.192501c5.786051 24.783618 8.85407 50.612082 8.85407 77.157919 0 186.710149-151.357317 338.068489-338.068489 338.068489-186.709125 0-338.067465-151.357317-338.067465-338.068489 0-186.709125 151.35834-338.067465 338.067465-338.067465 45.457442 0 88.806772 8.993246 128.398341 25.262549l0-39.832058c-41.050874-14.971688-84.153575-22.552704-128.398341-22.552704-50.634596 0-99.773047 9.925523-146.052243 29.499239-44.681739 18.899325-84.802382 45.946606-119.246475 80.391721-34.445116 34.445116-61.492396 74.564736-80.391721 119.246475-19.573717 46.279196-29.499239 95.417647-29.499239 146.052243s9.925523 99.773047 29.499239 146.052243c18.898302 44.681739 45.946606 84.802382 80.391721 119.247498 34.444092 34.444092 74.564736 61.492396 119.246475 80.391721 46.279196 19.57474 95.417647 29.499239 146.052243 29.499239s99.773047-9.9245 146.052243-29.499239c44.681739-18.899325 84.803406-45.946606 119.247498-80.391721s61.492396-74.56576 80.391721-119.247498c19.57474-46.279196 29.499239-95.417647 29.499239-146.052243 0-26.183568-2.676074-51.961888-7.947377-77.157919L841.241026 427.192501zM841.241026 427.192501c5.786051 24.783618 8.85407 50.612082 8.85407 77.157919 0 186.710149-151.357317 338.068489-338.068489 338.068489-186.709125 0-338.067465-151.357317-338.067465-338.068489 0-186.709125 151.35834-338.067465 338.067465-338.067465 45.457442 0 88.806772 8.993246 128.398341 25.262549l0-39.832058c-41.050874-14.971688-84.153575-22.552704-128.398341-22.552704-50.634596 0-99.773047 9.925523-146.052243 29.499239-44.681739 18.899325-84.802382 45.946606-119.246475 80.391721-34.445116 34.445116-61.492396 74.564736-80.391721 119.246475-19.573717 46.279196-29.499239 95.417647-29.499239 146.052243s9.925523 99.773047 29.499239 146.052243c18.898302 44.681739 45.946606 84.802382 80.391721 119.247498 34.444092 34.444092 74.564736 61.492396 119.246475 80.391721 46.279196 19.57474 95.417647 29.499239 146.052243 29.499239s99.773047-9.9245 146.052243-29.499239c44.681739-18.899325 84.803406-45.946606 119.247498-80.391721s61.492396-74.56576 80.391721-119.247498c19.57474-46.279196 29.499239-95.417647 29.499239-146.052243 0-26.183568-2.676074-51.961888-7.947377-77.157919L841.241026 427.192501z" fill="#969696"></path></g></g></svg>