<?xml version="1.0" standalone="no"?><!DOCTYPE svg PUBLIC "-//W3C//DTD SVG 1.1//EN" "http://www.w3.org/Graphics/SVG/1.1/DTD/svg11.dtd"><svg xmlns:xlink="http://www.w3.org/1999/xlink" xmlns="http://www.w3.org/2000/svg" version="1.1" width="200" height="200" viewBox="0 0 200 200"><defs><style type="text/css"><![CDATA[
@font-face {
  font-family: "ifont";
  src: url("//at.alicdn.com/t/font_1442373896_4754455.eot?#iefix") format("embedded-opentype"), url("//at.alicdn.com/t/font_1442373896_4754455.woff") format("woff"), url("//at.alicdn.com/t/font_1442373896_4754455.ttf") format("truetype"), url("//at.alicdn.com/t/font_1442373896_4754455.svg#ifont") format("svg");
}

]]></style></defs><g class="transform-group"><g transform="scale(0.1953125, 0.1953125)"><path d="M885.514437 207.858048 138.483516 207.858048c-41.377386 0-75.052347 33.67496-75.052347 75.135234l0 458.07381c0 41.484833 33.67496 75.074859 75.052347 75.074859l747.030921 0c41.550325 0 75.05337-33.590026 75.05337-75.074859L960.567807 282.993283C960.566784 241.533009 927.063739 207.858048 885.514437 207.858048L885.514437 207.858048zM867.55439 261.657348 569.65256 525.801331c-26.000164 23.192212-45.255717 34.714639-57.653071 34.714639-12.395308 0-31.652907-11.522428-57.653071-34.714639L156.443563 261.657348 867.55439 261.657348 867.55439 261.657348zM119.257639 724.337059 119.257639 310.459844l232.657874 204.067722L119.257639 724.337059 119.257639 724.337059zM158.382729 762.343675l233.531777-207.390397 38.257326 33.590026c22.233374 19.422352 49.616024 29.40061 81.826634 29.40061 32.380478 0 59.591213-9.978259 81.910545-29.40061l38.254256-33.590026 233.539964 207.390397L158.382729 762.343675 158.382729 762.343675zM904.771013 724.337059 672.111093 514.527566l232.659921-204.067722L904.771013 724.337059 904.771013 724.337059zM904.771013 724.337059" fill="#3cbaff"></path></g></g></svg>