<?xml version="1.0" standalone="no"?><!DOCTYPE svg PUBLIC "-//W3C//DTD SVG 1.1//EN" "http://www.w3.org/Graphics/SVG/1.1/DTD/svg11.dtd"><svg xmlns:xlink="http://www.w3.org/1999/xlink" xmlns="http://www.w3.org/2000/svg" version="1.1" width="308.7890625" height="200" viewBox="0 0 308.7890625 200"><defs><style type="text/css"><![CDATA[
@font-face {
  font-family: "ifont";
  src: url("//at.alicdn.com/t/font_1442373896_4754455.eot?#iefix") format("embedded-opentype"), url("//at.alicdn.com/t/font_1442373896_4754455.woff") format("woff"), url("//at.alicdn.com/t/font_1442373896_4754455.ttf") format("truetype"), url("//at.alicdn.com/t/font_1442373896_4754455.svg#ifont") format("svg");
}

]]></style></defs><g class="transform-group"><g transform="scale(0.1953125, 0.1953125)"><path d="M179.611576 1024c-5.268167 0-10.865595-1.317042-16.133762-3.621865-12.841158-5.762058-18.932476-19.097106-16.298392-35.395498 10.207074-60.913183 30.785852-117.875241 61.077814-169.404502 53.669453-90.875884 129.563987-159.526688 225.708039-203.647588 12.347267-5.597428 24.859164-10.700965 37.371061-15.145981 0.32926-0.16463 0.658521-0.16463 0.987781-0.32926 2.140193-0.493891 5.597428-1.481672 8.066881-4.938907 1.152412-1.481672 1.481672-3.457235 1.317042-5.268167-0.32926-1.810932-1.481672-3.457235-2.963344-4.445016-87.74791-56.303537-138.289389-134.502894-149.813505-232.128617-11.194855-93.674598 15.310611-176.648232 79.022508-246.780707C467.220579 37.535691 551.346624 0 638.929904 0c88.07717 0 169.569132 35.889389 229.494534 101.247588 67.004502 72.766559 93.839228 159.032797 80.010289 256.493891-13.335048 94.333119-63.547267 169.898392-149.154984 224.720257-2.140193 1.317042-3.292605 3.951125-3.127974 6.420579 0.32926 2.634084 1.975563 4.774277 4.445016 5.597428 12.347267 4.280386 26.670096 9.548553 40.499035 15.969132 128.411576 59.102251 218.628939 156.069453 267.853376 288.432154 9.713183 26.176206 17.121543 54.821865 22.554341 87.74791 2.798714 16.463023-9.383923 33.584566-26.011576 36.54791-2.140193 0.32926-4.280386 0.658521-6.420579 0.658521l0 0c-15.969132 0-29.46881-10.536334-32.267524-25.023794-10.371704-55.151125-26.505466-101.576849-49.389068-141.746624-63.547267-111.454662-156.398714-182.081029-275.590997-210.068167-37.206431-8.725402-73.918971-13.170418-109.314469-13.170418-107.009646 0-204.8 40.169775-290.572347 119.192283-66.675241 61.407074-109.80836 140.264952-128.082315 234.10418l-0.16463 1.317042c-1.646302 8.396141-3.127974 16.298392-8.231511 22.718971C199.037942 1019.390354 189.81865 1024 179.611576 1024L179.611576 1024zM638.929904 59.760772c-138.94791 0-252.213505 113.430225-252.707395 252.872026-0.16463 67.498392 25.846945 131.045659 73.26045 178.788424 47.742765 48.072026 111.619293 74.577492 179.940836 74.742122 139.771061 0 252.872026-113.594855 253.036656-253.201286C892.46045 173.684887 779.030225 60.090032 639.423794 59.760772 639.423794 59.760772 638.929904 59.760772 638.929904 59.760772L638.929904 59.760772zM1399.686174 1016.262379c-8.231511 0-15.969132-3.292605-21.73119-9.383923-6.091318-6.420579-9.054662-15.310611-8.396141-24.694534 4.938907-75.400643-12.182637-144.874598-51.03537-206.281672-53.010932-83.796785-128.905466-136.478457-225.708039-156.727974-9.383923-1.975563-18.767846-3.127974-27.822508-4.280386-5.762058-0.658521-11.359486-1.317042-17.121543-2.304823-13.664309-2.140193-24.365273-13.170418-25.353055-26.340836-1.152412-15.145981 6.914469-27.822508 20.578778-32.267524 43.462379-14.158199 81.162701-40.828296 111.948553-79.187138 31.444373-39.181994 49.389068-83.961415 53.010932-133.021222 5.432797-70.626367-15.310611-133.185852-61.407074-185.702894-35.066238-39.840514-79.681029-66.18135-132.856592-78.363987-22.389711-5.103537-45.108682-5.926688-66.345981-5.926688-14.32283 0-25.846945-9.219293-28.810289-23.048232-1.810932-8.396141 0-16.463023 4.938907-22.883601 5.432797-7.0791 14.32283-11.359486 24.365273-11.688746 4.609646-0.16463 9.054662-0.32926 13.664309-0.32926 41.816077 0 81.327331 8.066881 117.38135 24.036013 96.308682 42.639228 156.727974 114.088746 179.776206 212.537621 24.365273 104.375563-0.987781 198.708682-75.400643 280.529904-4.609646 5.103537-9.713183 9.877814-14.81672 14.65209-3.786495 3.457235-7.40836 6.749839-11.359486 10.207074l-5.597428 4.938907c-1.810932 1.646302-2.634084 3.951125-2.140193 6.420579 0.493891 2.304823 2.140193 4.280386 4.445016 5.103537 25.517685 8.890032 47.413505 18.438585 66.675241 29.30418 81.162701 45.437942 140.923473 111.290032 178.129904 195.909968 24.859164 56.962058 35.724759 119.192283 32.267524 185.373633-0.987781 17.780064-9.383923 29.46881-23.706752 32.761415C1404.62508 1015.933119 1402.155627 1016.262379 1399.686174 1016.262379L1399.686174 1016.262379zM645.185852 1015.109968c-41.322186-41.157556-82.150482-81.162701-116.72283-115.076527-0.16463-0.16463-0.16463-0.16463-0.32926-0.16463 31.609003-53.504823 63.218006-107.174277 94.662379-160.6791l22.389711-37.864952 59.596141 101.412219c18.932476 32.267524 37.864952 64.370418 56.962058 96.473312 0.16463 0.32926 0.32926 0.493891 0.32926 0.658521-0.16463 0.16463-0.32926 0.32926-0.493891 0.493891C725.360772 935.92283 687.33119 973.458521 645.185852 1015.109968L645.185852 1015.109968zM645.185852 1015.109968" fill="#3cbaff"></path></g></g></svg>