<?xml version="1.0" standalone="no"?><!DOCTYPE svg PUBLIC "-//W3C//DTD SVG 1.1//EN" "http://www.w3.org/Graphics/SVG/1.1/DTD/svg11.dtd"><svg width="200" height="200" viewBox="0 0 200 200" version="1.1" xmlns="http://www.w3.org/2000/svg" xmlns:xlink="http://www.w3.org/1999/xlink"><defs><style type="text/css"><![CDATA[
@font-face { font-family: ifont; src: url(http://at.alicdn.com/t/font_1442373896_4754455.eot?#iefix) format(embedded-opentype), url(http://at.alicdn.com/t/font_1442373896_4754455.woff) format(woff), url(http://at.alicdn.com/t/font_1442373896_4754455.ttf) format(truetype), url(http://at.alicdn.com/t/font_1442373896_4754455.svg#ifont) format(svg); }

]]></style></defs><g class="transform-group"><g transform="scale(0.1953125, 0.1953125)"><path d="M856.766278 446.173721l-567.325781-0.977618c-0.230119-76.526022-11.688172-201.244133 44.510191-267.112111C372.368141 133.054876 410.972469 88.031937 512.023884 89.038899 608.658258 86.487517 696.424571 168.624418 734.62426 267.112096c11.132181 28.408066 20.929983 43.71327 44.530268 44.528724 59.182183 1.791527 55.580595-60.637027 44.516369-89.045093C768.481041 80.40559 664.950831-1.5e-05 512.023884-1.5e-05c-103.934848 0-161.205039 21.331532-222.583387 89.038915C195.525848 192.508877 200.159108 359.806653 200.400038 445.196103l-33.107736 0.977618C136.349842 446.173721 111.354945 470.926144 111.354945 501.363578l0 467.336927c0 30.610409 25.042774 55.299511 55.937356 55.299511l689.415289 0c30.90076 0 55.937356-24.698368 55.937356-55.299511L912.644947 501.363578C912.703634 470.872089 887.667038 446.173721 856.766278 446.173721L856.766278 446.173721 856.766278 446.173721zM825.028443 890.080249c0 12.313662-4.288855 22.871319-13.073517 31.527794-8.699719 8.712074-19.218765 13.073517-31.521617 13.073517l-535.262073 0c-12.313662 0-22.823442-4.30121-31.47374-13.073517-8.712074-8.713619-13.127572-19.214132-13.127572-31.527794L200.569924 577.83709c0-24.55937 19.973987-44.542624 44.601312-44.542624l535.24354 0c24.62578 0 44.613667 19.981709 44.613667 44.542624L825.028443 890.080249 825.028443 890.080249zM825.028443 890.080249" fill="#3cbaff"></path></g></g></svg>