<?xml version="1.0" standalone="no"?><!DOCTYPE svg PUBLIC "-//W3C//DTD SVG 1.1//EN" "http://www.w3.org/Graphics/SVG/1.1/DTD/svg11.dtd"><svg xmlns:xlink="http://www.w3.org/1999/xlink" xmlns="http://www.w3.org/2000/svg" version="1.1" width="200" height="200" viewBox="0 0 200 200"><defs><style type="text/css"><![CDATA[
@font-face {
  font-family: "ifont";
  src: url("//at.alicdn.com/t/font_1442373896_4754455.eot?#iefix") format("embedded-opentype"), url("//at.alicdn.com/t/font_1442373896_4754455.woff") format("woff"), url("//at.alicdn.com/t/font_1442373896_4754455.ttf") format("truetype"), url("//at.alicdn.com/t/font_1442373896_4754455.svg#ifont") format("svg");
}

]]></style></defs><g class="transform-group"><g transform="scale(0.1953125, 0.1953125)"><path d="M937.953252 911.426085c-5.194302-136.336108-73.537853-252.534574-176.12123-324.70222-39.593763-28.753881-84.350107-50.634214-132.469034-64.501036 82.392522-42.526559 138.960889-128.337947 138.960889-227.26812 0-141.030014-114.740254-255.770268-255.770268-255.770268S256.783341 153.924695 256.783341 294.953685c0 98.585319 56.159044 184.16851 138.082892 226.847541C222.058468 570.251705 94.434789 722.894198 87.24811 911.525346c-0.019443 0.49221 0.224104 0.819668 0.228197 1.297552-0.036839 0.77055-0.179079 1.512447-0.212848 2.285043-0.765433 17.640776 12.910031 32.16456 30.550807 32.92897 17.125029 0.686638 32.564673-13.694907 33.329083-31.351032 4.995781-114.223484 62.412468-214.116589 148.283208-277.153274 59.807131-42.307571 133.340891-67.121723 213.220173-67.121723 194.184631 0 352.933191 151.648862 361.41026 345.475336 0.765433 17.656125 16.173354 30.353308 33.329083 30.150694 17.640776-0.76441 31.315216-16.487509 30.550807-34.127262-0.023536-0.529049-0.118704-1.037632-0.144286-1.566682C937.791569 912.001183 937.966555 911.772986 937.953252 911.426085zM320.725652 294.953685c0-105.780185 86.047772-191.827957 191.827957-191.827957s191.827957 86.047772 191.827957 191.827957-86.047772 191.827957-191.827957 191.827957S320.725652 400.73387 320.725652 294.953685z" fill="#969696"></path></g></g></svg>