<?xml version="1.0" standalone="no"?><!DOCTYPE svg PUBLIC "-//W3C//DTD SVG 1.1//EN" "http://www.w3.org/Graphics/SVG/1.1/DTD/svg11.dtd"><svg xmlns:xlink="http://www.w3.org/1999/xlink" xmlns="http://www.w3.org/2000/svg" version="1.1" width="200" height="200" viewBox="0 0 200 200"><defs><style type="text/css"><![CDATA[
@font-face {
  font-family: "ifont";
  src: url("//at.alicdn.com/t/font_1442373896_4754455.eot?#iefix") format("embedded-opentype"), url("//at.alicdn.com/t/font_1442373896_4754455.woff") format("woff"), url("//at.alicdn.com/t/font_1442373896_4754455.ttf") format("truetype"), url("//at.alicdn.com/t/font_1442373896_4754455.svg#ifont") format("svg");
}

]]></style></defs><g class="transform-group"><g transform="scale(0.1953125, 0.1953125)"><path d="M993.540013 766.084882l-3.938871-5.732561c2.110146 1.984191-10.438161-12.618389-10.438161-12.618389s-11.779772-13.775748-42.675706-39.318494c-25.398503-20.996197-57.116186-45.144176-81.849512-61.45977-30.043484-19.819394-50.961764-32.584116-49.647784-31.731702l-22.065454-11.037381c-9.674743-4.786003-25.829333-5.307889-37.235582-1.379417-10.307173 3.549849-19.37814 11.622712-23.588198 18.97005 1.804165-3.320629-7.154234 6.52767-25.372919 39.003316-7.808154 14.175861-16.967129 34.189683-27.992693 53.848419-14.960341 26.675546-53.757554 53.070706-92.417638 31.18628-49.066522-27.77253-112.131436-66.098417-176.87669-127.601166C324.39247 547.011398 283.36845 492.403686 260.06679 440.458617c-8.482541-18.910699-4.627585-58.512648 26.371708-73.620741 30.620653-14.923898 48.238632-18.689664 67.581978-30.30112 17.512574-10.921747 14.050584-7.27673 34.477656-20.694321 0.824819-0.600681 7.362997-6.291287 8.274801-6.898107 0 0 1.522744-1.542122 2.757926-2.758834 12.828705-12.163017 16.071698-28.288277 9.653253-44.148499l-2.757926-8.277524c0 0-14.735204-33.45188-37.235582-71.741951-11.924064-20.290115-29.265739-45.538149-42.752457-63.463404-36.500817-48.518017-68.955312-63.463404-68.955312-63.463404s-9.095527-4.792143-13.791676-6.898107c-18.499083-7.798617-34.913603-5.51255-51.027259 1.379417-34.902346 12.894681-54.780903 30.523177-81.75741 52.699246C51.94418 150.741189 10.622364 218.079854 18.871582 276.866748c12.852242 91.943039 128.256349 294.433846 279.149181 437.648618 150.93786 143.236262 364.322531 252.835426 461.043352 264.931928 64.999045 8.280594 120.058299-24.922622 174.867856-75.433016 19.298318-17.785062 44.513641-46.931892 57.481522-74.673723C998.705879 813.742299 1005.825319 783.53737 993.540013 766.084882z" fill="#3cbaff"></path></g></g></svg>