<?xml version="1.0" standalone="no"?><!DOCTYPE svg PUBLIC "-//W3C//DTD SVG 1.1//EN" "http://www.w3.org/Graphics/SVG/1.1/DTD/svg11.dtd"><svg xmlns:xlink="http://www.w3.org/1999/xlink" xmlns="http://www.w3.org/2000/svg" version="1.1" width="200" height="200" viewBox="0 0 200 200"><defs><style type="text/css"><![CDATA[
@font-face {
  font-family: "ifont";
  src: url("//at.alicdn.com/t/font_1442373896_4754455.eot?#iefix") format("embedded-opentype"), url("//at.alicdn.com/t/font_1442373896_4754455.woff") format("woff"), url("//at.alicdn.com/t/font_1442373896_4754455.ttf") format("truetype"), url("//at.alicdn.com/t/font_1442373896_4754455.svg#ifont") format("svg");
}

]]></style></defs><g class="transform-group"><g transform="scale(0.1953125, 0.1953125)"><path d="M939.056887 467.617164c-13.609972 0-24.632004 11.024078-24.632004 24.650423 0 213.995839-174.10327 388.089899-388.114458 388.089899-123.933637 0-241.130849-59.857273-314.061882-160.160723l123.082246 0c13.609972 0 24.667819-11.041474 24.667819-24.65247 0-13.608949-11.05887-24.632004-24.667819-24.632004L162.86174 670.912289c-13.626345 0-24.650423 11.023054-24.650423 24.632004l0 160.178119c0 13.609972 11.024078 24.633027 24.650423 24.633027 13.608949 0 24.63405-11.023054 24.63405-24.633027l0-86.907349c82.747609 101.154841 207.411887 160.823825 338.814636 160.823825 241.180991 0 437.415304-196.20873 437.415304-437.373349C963.724707 478.641241 952.66686 467.617164 939.056887 467.617164M526.309402 104.153128c108.09388 0 210.285331 44.666292 283.644105 123.219369L692.652941 227.372497c-13.609972 0-24.666796 11.024078-24.666796 24.62484 0 13.609972 11.05887 24.651446 24.666796 24.651446l172.486446 0c13.609972 0 24.633027-11.041474 24.633027-24.651446L889.772414 91.836615c0-13.609972-11.023054-24.650423-24.633027-24.650423-13.592576 0-24.650423 11.040451-24.650423 24.650423l0 96.313579C758.268358 103.141078 645.494898 54.868655 526.309402 54.868655c-241.164618 0-437.382559 196.209754-437.382559 437.389722 0 13.610996 11.040451 24.63405 24.650423 24.63405 13.5936 0 24.616654-11.023054 24.616654-24.63405C138.193921 278.254352 312.296167 104.153128 526.309402 104.153128M655.686005 498.417657c13.591553 0 24.633027-11.024078 24.633027-24.651446 0-13.600763-11.041474-24.632004-24.633027-24.632004l-90.181929 0 86.899162-108.597347c14.867616-18.58631 11.839653-45.729507-6.737448-60.60531-18.611893-14.894222-45.744857-11.848862-60.629869 6.744611l-64.885799 81.105203-64.88273-81.105203c-14.868639-18.611893-42.002626-21.62246-60.597123-6.744611-18.611893 14.876826-21.639856 42.018999-6.754844 60.60531l86.880743 108.597347-90.164532 0c-13.609972 0-24.633027 11.031241-24.633027 24.632004 0 13.626345 11.022031 24.651446 24.633027 24.651446l92.41069 0 0 49.284473-92.41069 0c-13.609972 0-24.633027 11.022031-24.633027 24.650423 0 13.600763 11.022031 24.632004 24.633027 24.632004l92.41069 0 0 147.846256c0 23.815405 19.292392 43.134403 43.107797 43.134403 23.816428 0 43.10882-19.318998 43.10882-43.134403L563.258942 596.98558l92.427062 0c13.591553 0 24.633027-11.031241 24.633027-24.632004 0-13.626345-11.041474-24.651446-24.633027-24.651446L563.258942 547.70213l0-49.28345L655.686005 498.41868 655.686005 498.417657z" fill="#3cbaff"></path></g></g></svg>