<?xml version="1.0" standalone="no"?><!DOCTYPE svg PUBLIC "-//W3C//DTD SVG 1.1//EN" "http://www.w3.org/Graphics/SVG/1.1/DTD/svg11.dtd"><svg xmlns:xlink="http://www.w3.org/1999/xlink" xmlns="http://www.w3.org/2000/svg" version="1.1" width="200" height="200" viewBox="0 0 200 200"><defs><style type="text/css"><![CDATA[
@font-face {
  font-family: "ifont";
  src: url("//at.alicdn.com/t/font_1442373896_4754455.eot?#iefix") format("embedded-opentype"), url("//at.alicdn.com/t/font_1442373896_4754455.woff") format("woff"), url("//at.alicdn.com/t/font_1442373896_4754455.ttf") format("truetype"), url("//at.alicdn.com/t/font_1442373896_4754455.svg#ifont") format("svg");
}

]]></style></defs><g class="transform-group"><g transform="scale(0.1953125, 0.1953125)"><path d="M148.473031 874.211509l275.634688 0 0 0.001023-275.634688 0 0-0.001023ZM217.381447 667.48626l137.816832 0 0 137.816832-137.816832 0 0-137.816832ZM561.925574 529.669428l68.908416 0 0 275.631618-68.908416 0 0-275.631618ZM79.563592 943.120948l413.45152 0L493.015112 529.669428 79.563592 529.669428 79.563592 943.120948zM148.473031 874.211509 148.473031 598.577844l275.634688 0 0 275.632641 0 0.001023L148.473031 874.211509 148.473031 874.211509zM561.925574 874.212532l137.816832 0 0 68.909439-137.816832 0 0-68.909439ZM906.468678 667.48626l68.908416 0 0 68.909439-68.908416 0 0-68.909439ZM768.651846 529.669428l206.726272 0 0 68.908416-206.726272 0 0-68.908416ZM699.74036 185.125301l137.819902 0 0 137.817855-137.819902 0 0-137.817855ZM975.377094 47.309492 561.925574 47.309492l0 413.45152 413.45152 0L975.377094 47.309492zM906.468678 391.851573 630.833991 391.851573 630.833991 116.217908l275.634688 0L906.468678 391.851573zM79.563592 460.761012l413.45152 0L493.015112 47.309492 79.563592 47.309492 79.563592 460.761012zM148.473031 116.217908l275.634688 0 0 275.633664L148.473031 391.851573 148.473031 116.217908zM906.468678 874.212532 768.651846 874.212532 768.651846 943.121971 975.377094 943.121971 975.377094 805.303093 906.468678 805.303093ZM699.74036 667.48626 699.74036 805.303093 837.559239 805.303093 837.559239 736.3957 768.651846 736.3957 768.651846 667.48626ZM217.381447 185.125301l137.816832 0 0 137.817855-137.816832 0 0-137.817855Z" fill="#3cbaff"></path></g></g></svg>