<?xml version="1.0" standalone="no"?><!DOCTYPE svg PUBLIC "-//W3C//DTD SVG 1.1//EN" "http://www.w3.org/Graphics/SVG/1.1/DTD/svg11.dtd"><svg xmlns:xlink="http://www.w3.org/1999/xlink" xmlns="http://www.w3.org/2000/svg" version="1.1" width="200" height="200" viewBox="0 0 200 200"><defs><style type="text/css"><![CDATA[
@font-face {
  font-family: "ifont";
  src: url("//at.alicdn.com/t/font_1442373896_4754455.eot?#iefix") format("embedded-opentype"), url("//at.alicdn.com/t/font_1442373896_4754455.woff") format("woff"), url("//at.alicdn.com/t/font_1442373896_4754455.ttf") format("truetype"), url("//at.alicdn.com/t/font_1442373896_4754455.svg#ifont") format("svg");
}

]]></style></defs><g class="transform-group"><g transform="scale(0.1953125, 0.1953125)"><path d="M830.8365 734.049867 753.94371 734.049867 781.546248 901.944257C783.517861 913.657821 779.574638 925.37138 769.71659 931.228164 759.858538 937.084944 750.000486 939.037204 738.170829 933.180424L507.492447 808.23576 276.814067 931.22816C266.956016 937.084944 255.126356 935.132684 247.239915 929.2759 237.381864 923.41912 233.438644 911.705557 235.410254 899.991997L278.785676 626.675547 87.539498 431.449517C79.653057 423.640474 77.681447 411.926914 81.624668 400.21335 85.567889 390.45205 93.454329 382.643009 105.283988 380.690748L367.50813 339.693281 481.861514 95.660739C485.804737 85.899438 497.634395 78.090396 507.492447 78.090396 519.322108 78.090396 529.180156 83.947177 533.123379 95.660739L647.476764 339.693281 909.700903 380.690748C919.558955 382.643009 929.417007 390.45205 933.360226 400.21335 937.303446 411.926914 933.360226 421.688214 927.445398 431.449517L787.461081 575.91678 844.637771 626.675551 982.650478 484.160547C1010.253021 454.87664 1020.111069 413.879174 1006.309797 376.786228 994.480136 339.693281 960.962765 312.361637 921.530565 306.504855L698.738625 273.31643 604.101341 64.424573C586.35685 27.331628 548.89626 3.904504 507.492447 3.904504 466.088637 3.904504 428.628043 27.331628 410.883552 64.424574L314.274658 271.36417 91.482719 306.504855C52.050517 312.361636 20.504755 339.693281 6.703485 376.786228-5.126176 413.879174 2.760264 454.87664 30.362805 484.160547L195.978053 654.007194 158.517461 888.278433C152.602631 929.2759 168.375512 968.321111 201.892883 991.748234 219.637374 1005.414053 241.325085 1011.270837 263.012796 1011.270837 280.757287 1011.270837 298.501778 1007.366313 314.274658 997.605014L507.492447 894.135217 700.710235 997.605014C716.483115 1005.414057 734.227606 1011.270837 751.972096 1011.270837 773.659809 1011.270837 795.347519 1005.414057 813.092009 991.748234 846.60938 968.321111 862.382261 929.2759 856.467432 888.278433L830.8365 734.049867 830.8365 734.049867Z" fill="#3cbaff"></path></g></g></svg>