<?xml version="1.0" standalone="no"?><!DOCTYPE svg PUBLIC "-//W3C//DTD SVG 1.1//EN" "http://www.w3.org/Graphics/SVG/1.1/DTD/svg11.dtd"><svg xmlns:xlink="http://www.w3.org/1999/xlink" xmlns="http://www.w3.org/2000/svg" version="1.1" width="200" height="200" viewBox="0 0 200 200"><defs><style type="text/css"><![CDATA[
@font-face {
  font-family: "ifont";
  src: url("//at.alicdn.com/t/font_1442373896_4754455.eot?#iefix") format("embedded-opentype"), url("//at.alicdn.com/t/font_1442373896_4754455.woff") format("woff"), url("//at.alicdn.com/t/font_1442373896_4754455.ttf") format("truetype"), url("//at.alicdn.com/t/font_1442373896_4754455.svg#ifont") format("svg");
}

]]></style></defs><g class="transform-group"><g transform="scale(0.1953125, 0.1953125)"><path d="M471.393103 898.648276l82.97931 0c17.655172 0 33.544828-12.358621 33.544828-30.013793 0-15.889655-14.124138-30.013793-33.544828-30.013793l-82.97931 0c-17.655172 0-33.544828 12.358621-33.544828 30.013793C437.848276 886.289655 451.972414 898.648276 471.393103 898.648276zM813.903448 413.131034l0 310.731034L210.096552 723.862069 210.096552 102.4c0-15.889655 14.124138-30.013793 33.544828-30.013793l534.951724 0c17.655172 0 33.544828 12.358621 33.544828 30.013793l0 211.862069 67.089655 0 0-211.862069c0-49.434483-45.903448-88.275862-100.634483-88.275862L243.641379 14.124138c-54.731034 0-100.634483 40.606897-100.634483 88.275862l0 826.262069c0 49.434483 45.903448 88.275862 100.634483 88.275862l534.951724 0c54.731034 0 100.634483-40.606897 100.634483-88.275862L879.227586 413.131034 813.903448 413.131034zM813.903448 928.662069c0 15.889655-15.889655 30.013793-33.544828 30.013793L243.641379 958.675862c-17.655172 0-33.544828-12.358621-33.544828-30.013793l0-148.303448 602.041379 0L812.137931 928.662069zM390.17931 132.413793c-17.655172 0-33.544828 12.358621-33.544828 30.013793 0 15.889655 14.124138 30.013793 33.544828 30.013793l241.875862 0c17.655172 0 33.544828-12.358621 33.544828-30.013793 0-15.889655-14.124138-30.013793-33.544828-30.013793L390.17931 132.413793zM780.358621 958.675862" fill="#3cbaff"></path></g></g></svg>