<?xml version="1.0" standalone="no"?><!DOCTYPE svg PUBLIC "-//W3C//DTD SVG 1.1//EN" "http://www.w3.org/Graphics/SVG/1.1/DTD/svg11.dtd"><svg xmlns:xlink="http://www.w3.org/1999/xlink" xmlns="http://www.w3.org/2000/svg" version="1.1" width="200" height="200" viewBox="0 0 200 200"><defs><style type="text/css"><![CDATA[
@font-face {
  font-family: "ifont";
  src: url("//at.alicdn.com/t/font_1442373896_4754455.eot?#iefix") format("embedded-opentype"), url("//at.alicdn.com/t/font_1442373896_4754455.woff") format("woff"), url("//at.alicdn.com/t/font_1442373896_4754455.ttf") format("truetype"), url("//at.alicdn.com/t/font_1442373896_4754455.svg#ifont") format("svg");
}

]]></style></defs><g class="transform-group"><g transform="scale(0.1953125, 0.1953125)"><path d="M505.860672 1019.529899c-135.171123 0-262.011236-53.115729-357.119889-149.622296-4.14735-4.184668-6.363237-9.975021-6.034434-15.885398 5.050044-93.180216 66.417102-120.558573 177.739955-170.22591 16.582339-7.38898 34.397182-15.354876 53.609941-24.218424 12.312949-5.70664 23.31573-36.823866 32.468745-64.817468-48.560906-40.063479-75.077922-109.824079-75.077922-198.614882 0-135.643146 93.959861-183.771364 174.414612-183.771364 80.45576 0 174.415621 48.127209 174.415621 183.771364 0 88.808958-26.516008 158.551403-75.077922 198.614882 9.112671 27.993602 20.114444 59.109819 32.511106 64.817468 19.16838 8.863548 37.065929 16.829445 53.606915 24.218424 111.325879 49.710706 172.651585 77.087047 177.659268 170.22591 0.328803 5.910377-1.847749 11.70073-5.992073 15.885398C767.872917 966.414171 641.075164 1019.529899 505.860672 1019.529899zM185.436557 847.167782c86.366136 84.110914 199.784854 130.329858 320.423106 130.329858 120.683639 0 234.058987-46.218944 320.383771-130.329858-6.444933-57.260052-44.289499-76.882301-152.042928-124.991356-16.705387-7.428315-34.770363-15.474899-54.104153-24.423169-30.374899-14.039666-43.592558-55.047191-57.588855-98.43803l-1.930454-5.909368c-2.913836-8.947261 0.492195-18.759899 8.332017-23.971318 44.703023-29.82017 69.331947-91.374828 69.331947-173.289018 0-131.515968-101.347832-141.737087-132.382353-141.737087-31.072847 0-132.380336 10.221119-132.380336 141.737087 0 81.892001 24.628923 143.446659 69.37229 173.289018 7.79847 5.211419 11.165166 15.024057 8.291674 23.971318l-1.887084 5.788337c-14.039666 43.46951-27.256318 84.519396-57.550528 98.559062-19.374134 8.903892-37.436084 16.950476-54.103145 24.423169C229.769425 770.28548 191.880481 789.906721 185.436557 847.167782zM847.998865 876.188135c-2.502328 0-5.005665-0.448826-7.428315-1.353537-7.79847-2.958214-13.093603-10.221119-13.547471-18.511784-3.488736-64.445295-39.486561-83.535005-152.822574-134.146388-16.705387-7.428315-34.770363-15.474899-54.104153-24.423169-30.374899-14.039666-43.592558-55.047191-57.588855-98.43803l-1.930454-5.909368c-2.913836-8.947261 0.492195-18.759899 8.332017-23.971318 44.703023-29.82017 69.331947-91.374828 69.331947-173.289018 0-131.515968-101.347832-141.737087-132.382353-141.737087-31.072847 0-132.380336 10.221119-132.380336 141.737087 0 81.892001 24.628923 143.446659 69.37229 173.289018 7.79847 5.211419 11.165166 15.024057 8.291674 23.971318l-1.887084 5.788337c-14.039666 43.46951-27.256318 84.519396-57.550528 98.559062-19.374134 8.903892-37.436084 16.950476-54.103145 24.423169-113.374339 50.571039-149.416543 69.657723-152.945622 134.146388-0.410499 8.291674-5.745975 15.554578-13.50511 18.511784-7.675421 2.95418-16.540986 1.066087-22.411019-4.926995C55.599902 775.457564 4.330914 650.465199 4.330914 518.00115c0-276.545115 224.98666-501.531775 501.529758-501.531775 276.545115 0 501.530766 224.98666 501.530766 501.531775 0 132.464049-51.31034 257.456414-144.407851 351.906453C858.959286 874.012592 853.542113 876.188135 847.998865 876.188135zM605.19837 594.761412c9.112671 27.993602 20.114444 59.109819 32.511106 64.817468 19.16838 8.863548 37.065929 16.829445 53.606915 24.218424 91.29414 40.75941 148.925356 66.499807 169.529978 125.812354 67.648599-82.056403 104.510791-184.143536 104.510791-291.607498 0-253.370588-206.145065-459.498507-459.497498-459.498507-253.39076 0-459.49649 206.12691-459.49649 459.498507 0 107.463962 36.82084 209.51176 104.509783 291.607498 20.564278-59.313555 78.280217-85.092279 169.571331-125.812354 16.582339-7.38898 34.397182-15.354876 53.609941-24.218424 12.312949-5.70664 23.31573-36.823866 32.468745-64.817468-48.560906-40.063479-75.077922-109.824079-75.077922-198.614882 0-135.643146 93.959861-183.771364 174.414612-183.771364 80.45576 0 174.415621 48.127209 174.415621 183.771364C680.275284 484.955488 653.759276 554.697933 605.19837 594.761412z" fill="#fff"></path></g></g></svg>