<?xml version="1.0" standalone="no"?><!DOCTYPE svg PUBLIC "-//W3C//DTD SVG 1.1//EN" "http://www.w3.org/Graphics/SVG/1.1/DTD/svg11.dtd"><svg xmlns:xlink="http://www.w3.org/1999/xlink" xmlns="http://www.w3.org/2000/svg" version="1.1" width="200" height="200" viewBox="0 0 200 200"><defs><style type="text/css"><![CDATA[
@font-face {
  font-family: "ifont";
  src: url("//at.alicdn.com/t/font_1442373896_4754455.eot?#iefix") format("embedded-opentype"), url("//at.alicdn.com/t/font_1442373896_4754455.woff") format("woff"), url("//at.alicdn.com/t/font_1442373896_4754455.ttf") format("truetype"), url("//at.alicdn.com/t/font_1442373896_4754455.svg#ifont") format("svg");
}

]]></style></defs><g class="transform-group"><g transform="scale(0.1953125, 0.1953125)"><path d="M686.2848 661.1968c9.9328-16.6912 4.4032-38.1952-12.288-48.128-18.0224-10.752-36.864-19.968-56.2176-27.7504 21.9136-12.8 42.2912-28.5696 60.7232-47.0016 56.7296-56.7296 88.064-132.1984 88.064-212.3776 0-80.1792-31.232-155.648-88.064-212.3776C621.7728 56.832 546.304 25.6 466.1248 25.6c-80.2816 0-155.7504 31.232-212.48 87.9616-56.7296 56.7296-88.064 132.1984-88.064 212.3776 0 80.1792 31.232 155.648 88.064 212.3776 18.432 18.432 38.8096 34.0992 60.7232 47.0016-2.2528 0.9216-4.608 1.8432-6.8608 2.7648-48.5376 20.48-92.0576 49.8688-129.4336 87.2448s-66.7648 80.896-87.2448 129.4336c-21.2992 50.176-32.0512 103.5264-32.0512 158.5152 0 19.3536 15.6672 35.1232 35.1232 35.1232 19.3536 0 35.1232-15.6672 35.1232-35.1232 0-185.856 151.2448-336.9984 337.2032-336.9984 60.7232 0 120.2176 16.2816 172.032 47.104C654.7456 683.3152 676.352 677.7856 686.2848 661.1968M235.8272 325.9392c0-126.8736 103.3216-230.1952 230.2976-230.1952 126.976 0 230.2976 103.2192 230.2976 230.1952 0 126.8736-103.3216 230.1952-230.2976 230.1952C339.1488 556.1344 235.8272 452.8128 235.8272 325.9392M930.2016 786.432 823.296 786.432 823.296 680.448c0-19.3536-15.4624-35.1232-34.816-35.1232s-34.816 15.6672-34.816 35.1232L753.664 786.432 643.3792 786.432c-19.3536 0-35.1232 15.9744-35.1232 35.328s15.6672 35.328 35.1232 35.328L753.664 857.088l0 106.1888c0 19.3536 15.4624 35.1232 34.816 35.1232s34.816-15.6672 34.816-35.1232L823.296 857.088l106.9056 0c19.3536 0 35.1232-15.9744 35.1232-35.328S949.5552 786.432 930.2016 786.432" fill="#3cbaff"></path></g></g></svg>