<?xml version="1.0" standalone="no"?><!DOCTYPE svg PUBLIC "-//W3C//DTD SVG 1.1//EN" "http://www.w3.org/Graphics/SVG/1.1/DTD/svg11.dtd"><svg width="200" height="200" viewBox="0 0 200 200" version="1.1" xmlns="http://www.w3.org/2000/svg" xmlns:xlink="http://www.w3.org/1999/xlink"><defs><style type="text/css"><![CDATA[
@font-face { font-family: ifont; src: url(http://at.alicdn.com/t/font_1442373896_4754455.eot?#iefix) format(embedded-opentype), url(http://at.alicdn.com/t/font_1442373896_4754455.woff) format(woff), url(http://at.alicdn.com/t/font_1442373896_4754455.ttf) format(truetype), url(http://at.alicdn.com/t/font_1442373896_4754455.svg#ifont) format(svg); }

]]></style></defs><g class="transform-group"><g transform="scale(0.1953125, 0.1953125)"><path d="M351.255992 288.824081c-17.35118 0-31.435966-14.052041-31.435966-31.435966 0-17.383926 14.084787-31.442106 31.435966-31.442106l192.152345 0c17.383926 0 31.435966 14.059204 31.435966 31.442106 0 17.383926-14.052041 31.435966-31.435966 31.435966L351.255992 288.824081 351.255992 288.824081zM672.578232 417.536558c0 17.115819-11.874445 30.944779-26.567076 30.944779L237.171678 448.481338c-14.669094 0-26.573215-13.82896-26.573215-30.944779 0-17.10661 11.904121-30.93557 26.573215-30.93557l408.840502 0C660.703787 386.599965 672.578232 400.428925 672.578232 417.536558L672.578232 417.536558zM672.578232 576.159252c0 17.115819-11.874445 30.944779-26.567076 30.944779L237.171678 607.104031c-14.669094 0-26.573215-13.82896-26.573215-30.944779 0-17.10661 11.904121-30.93557 26.573215-30.93557l408.840502 0C660.703787 545.222659 672.578232 559.051619 672.578232 576.159252L672.578232 576.159252zM672.578232 734.780923c0 17.115819-11.874445 30.944779-26.567076 30.944779L237.171678 765.725702c-14.669094 0-26.573215-13.82896-26.573215-30.944779 0-17.10661 11.904121-30.93557 26.573215-30.93557l408.840502 0C660.703787 703.845353 672.578232 717.674313 672.578232 734.780923L672.578232 734.780923zM884.702444 959.114201 142.315286 959.114201c-41.003879 0-74.238818-33.256428-74.238818-74.237795L68.076468 140.347468c0-40.983413 33.234939-74.239841 74.238818-74.239841l371.19409 0 192.015222 0 74.237795 0c27.334555 0 49.494251 22.159696 49.494251 49.494251l0 472.319256 0 81.093946L829.256644 774.819824c0 13.688767-0.071631 46.403866-32.937157 47.263443-34.728966 0.908696-34.977629-33.574676-34.977629-47.263443L761.341858 662.159952l0-74.237795L761.341858 161.566746c0-18.037818-14.622022-32.660864-32.660864-32.660864L464.016149 128.905882l-74.239841 0L160.465668 128.905882c-18.037818 0-32.660864 14.623046-32.660864 32.660864l0 702.091406c0 18.039865 14.624069 32.664957 32.664957 32.664957l625.25032 0 49.489134 0 11.44568 0c27.331485 0 49.488111-22.156626 49.488111-49.488111l0-545.07428c0-13.898545-2.548032-44.845371 29.364795-45.765323 34.085306-0.982374 33.43346 31.695886 33.43346 45.206598l0 558.930869 0 24.744567C958.941262 925.857772 925.685857 959.114201 884.702444 959.114201L884.702444 959.114201zM884.702444 959.114201" fill="#3cbaff"></path></g></g></svg>