<?xml version="1.0" standalone="no"?><!DOCTYPE svg PUBLIC "-//W3C//DTD SVG 1.1//EN" "http://www.w3.org/Graphics/SVG/1.1/DTD/svg11.dtd"><svg width="128" height="128" viewBox="0 0 128 128" version="1.1" xmlns="http://www.w3.org/2000/svg" xmlns:xlink="http://www.w3.org/1999/xlink"><defs><style type="text/css"><![CDATA[
@font-face { font-family: ifont; src: url(http://at.alicdn.com/t/font_1442373896_4754455.eot?#iefix) format(embedded-opentype), url(http://at.alicdn.com/t/font_1442373896_4754455.woff) format(woff), url(http://at.alicdn.com/t/font_1442373896_4754455.ttf) format(truetype), url(http://at.alicdn.com/t/font_1442373896_4754455.svg#ifont) format(svg); }

]]></style></defs><g class="transform-group"><g transform="scale(0.125, 0.125)"><path d="M164.405397 187.139168c0-40.622186 33.047674-73.670883 73.670883-73.670883l643.203204 0c13.317307 0 24.114211-10.796904 24.114211-24.114211 0-13.3214-10.796904-24.118304-24.114211-24.118304L238.075257 65.23577c-67.219961 0-121.903397 54.683437-121.903397 121.903397l0 652.088572c0 67.214844 54.683437 121.903397 121.903397 121.903397l667.317415 0L905.392672 260.810051 238.075257 260.810051C197.453071 260.810051 164.405397 227.762377 164.405397 187.139168L164.405397 187.139168zM857.161181 912.898623 238.075257 912.898623c-40.622186 0-73.670883-33.051767-73.670883-73.670883L164.404374 284.201807c20.478404 15.579837 46.016033 24.841781 73.670883 24.841781l619.0849 0L857.160157 912.898623 857.161181 912.898623zM857.161181 912.898623M881.279485 161.243381 243.410775 161.243381c-13.317307 0-24.118304 10.796904-24.118304 24.118304 0 13.31833 10.800997 24.115234 24.118304 24.115234l637.868709 0c13.317307 0 24.114211-10.796904 24.114211-24.115234C905.393695 172.040285 894.596791 161.243381 881.279485 161.243381L881.279485 161.243381zM881.279485 161.243381M378.805442 665.21759c3.765767 3.667529 7.043417 13.754259 6.15621 18.935258l-17.702174 103.184057c-2.118244 12.341073 0.488117 23.616884 7.346315 31.746028 6.182816 7.338129 15.046694 11.377118 24.960485 11.377118 6.520507 0 13.18837-1.76418 19.817348-5.249561l92.669586-48.716538c1.724271-0.908696 5.473665-1.820462 9.953699-1.820462 4.484128 0 8.232498 0.911766 9.957793 1.820462l92.6614 48.716538c6.627954 3.485381 13.299911 5.249561 19.820418 5.249561 9.909697 0 18.774599-4.03899 24.961508-11.377118 6.853082-8.129144 9.460466-19.400862 7.346315-31.746028l-17.693987-103.179964c-0.8913-5.185093 2.38635-15.271822 6.15314-18.939351l74.966389-73.077366c11.31572-11.030218 15.415085-24.707728 11.246135-37.527708-4.16281-12.81998-15.517415-21.481244-31.157627-23.750937l-103.604636-15.054881c-5.201465-0.757247-13.779841-6.992251-16.105816-11.704576l-46.331211-93.881181c-6.995321-14.169721-18.735713-22.294772-32.216749-22.294772-13.482059 0-25.225521 8.129144-32.217772 22.294772l-46.330188 93.881181c-2.326998 4.712325-10.905374 10.94733-16.10684 11.704576l-103.609753 15.054881c-15.635095 2.27481-26.988678 10.930957-31.152511 23.750937-4.168949 12.81998-0.069585 26.497491 11.246135 37.527708L378.805442 665.21759 378.805442 665.21759zM434.289104 563.537793c20.99108-3.048429 43.039235-19.068288 52.427046-38.08848l35.295877-71.517847 35.294854 71.517847c9.387811 19.020192 31.434943 35.040051 52.42807 38.08848l78.922491 11.471262-57.113789 55.669904c-15.185864 14.801101-23.608697 40.72247-20.024056 61.628616l13.482059 78.604242-70.592778-37.112246c-9.032724-4.747117-20.538779-7.358595-32.397874-7.358595-11.865235 0-23.37129 2.611477-32.398898 7.358595l-70.595848 37.112246 13.485129-78.608336c3.585665-20.902052-4.838192-46.823422-20.023032-61.628616l-57.114812-55.665811L434.289104 563.537793 434.289104 563.537793zM434.289104 563.537793" fill="#3cbaff"></path></g></g></svg>