<?xml version="1.0" standalone="no"?><!DOCTYPE svg PUBLIC "-//W3C//DTD SVG 1.1//EN" "http://www.w3.org/Graphics/SVG/1.1/DTD/svg11.dtd"><svg width="128" height="128" viewBox="0 0 128 128" version="1.1" xmlns="http://www.w3.org/2000/svg" xmlns:xlink="http://www.w3.org/1999/xlink"><defs><style type="text/css"><![CDATA[
@font-face { font-family: ifont; src: url(http://at.alicdn.com/t/font_1442373896_4754455.eot?#iefix) format(embedded-opentype), url(http://at.alicdn.com/t/font_1442373896_4754455.woff) format(woff), url(http://at.alicdn.com/t/font_1442373896_4754455.ttf) format(truetype), url(http://at.alicdn.com/t/font_1442373896_4754455.svg#ifont) format(svg); }

]]></style></defs><g class="transform-group"><g transform="scale(0.125, 0.125)"><path d="M912.656384 246.578176 772.447232 108.58496l-392.2432 382.838784 141.560832 138.354688L912.656384 246.578176 912.656384 246.578176 912.656384 246.578176zM306.26816 698.105856l183.227392-43.717632L355.2256 523.208704 306.26816 698.105856 306.26816 698.105856 306.26816 698.105856zM1000.572928 50.737152l-28.1088-27.671552c-31.224832-30.753792-81.185792-30.753792-112.407552 0l-53.316608 52.045824 140.130304 137.924608 53.701632-52.646912C1031.809024 130.666496 1031.809024 81.480704 1000.572928 50.737152L1000.572928 50.737152 1000.572928 50.737152 1000.572928 50.737152zM834.108416 917.15072c0 11.65312-9.622528 21.13536-21.459968 21.13536l-100.477952 0-40.246272 0-563.41504 0c-11.834368 0-21.459968-9.48224-21.459968-21.13536L87.049216 147.749888c0-11.660288 9.6256-21.138432 21.459968-21.138432l545.23904 0L653.748224 40.899584l-545.23904 0C48.684032 40.899584 0 88.839168 0 147.749888l0 769.400832C0 976.067584 48.677888 1024 108.510208 1024l563.41504 0 40.246272 0 100.477952 0c59.839488 0 108.52352-47.932416 108.52352-106.84928L921.172992 401.384448l-87.063552 0L834.10944 917.15072 834.108416 917.15072 834.108416 917.15072 834.108416 917.15072zM834.108416 917.15072" fill="#3cbaff"></path></g></g></svg>