<?xml version="1.0" standalone="no"?><!DOCTYPE svg PUBLIC "-//W3C//DTD SVG 1.1//EN" "http://www.w3.org/Graphics/SVG/1.1/DTD/svg11.dtd"><svg width="128" height="128" viewBox="0 0 128 128" version="1.1" xmlns="http://www.w3.org/2000/svg" xmlns:xlink="http://www.w3.org/1999/xlink"><defs><style type="text/css"><![CDATA[
@font-face { font-family: ifont; src: url(http://at.alicdn.com/t/font_1442373896_4754455.eot?#iefix) format(embedded-opentype), url(http://at.alicdn.com/t/font_1442373896_4754455.woff) format(woff), url(http://at.alicdn.com/t/font_1442373896_4754455.ttf) format(truetype), url(http://at.alicdn.com/t/font_1442373896_4754455.svg#ifont) format(svg); }

]]></style></defs><g class="transform-group"><g transform="scale(0.125, 0.125)"><path d="M511.999488 962.894294c-248.608148 0-450.894294-202.255447-450.894294-450.894294 0-248.637824 202.286146-450.894294 450.894294-450.894294S962.893782 263.362176 962.893782 512C962.893782 760.638847 760.607636 962.894294 511.999488 962.894294zM511.999488 117.467365c-217.550805 0-394.532635 177.010483-394.532635 394.532635 0 217.58048 176.98183 394.532635 394.532635 394.532635 217.550805 0 394.532635-176.952154 394.532635-394.532635C906.532123 294.478871 729.550293 117.467365 511.999488 117.467365zM701.515796 237.412155 565.36593 488.1058l107.793028 0L673.158958 543.40936 546.579051 543.40936l0 76.910671 126.579907 0 0 55.715953L546.579051 676.035984l0 110.611214L477.447555 786.647197 477.447555 676.037007 346.964758 676.037007 346.964758 620.321054 477.447555 620.321054 477.447555 543.40936 346.964758 543.40936l0-55.304583 109.905132 0L322.48318 237.412155l79.082126 0 93.965092 195.388039c5.196349 10.860349 11.096732 24.657586 17.730826 41.449018l1.409093 0c4.725628-13.44522 10.861372-27.887141 18.434861-43.269479l94.318132-193.567577L701.515796 237.412155z" fill="#3cbaff"></path></g></g></svg>