<?xml version="1.0" standalone="no"?><!DOCTYPE svg PUBLIC "-//W3C//DTD SVG 1.1//EN" "http://www.w3.org/Graphics/SVG/1.1/DTD/svg11.dtd"><svg width="128" height="128" viewBox="0 0 128 128" version="1.1" xmlns="http://www.w3.org/2000/svg" xmlns:xlink="http://www.w3.org/1999/xlink"><defs><style type="text/css"><![CDATA[
@font-face { font-family: ifont; src: url(http://at.alicdn.com/t/font_1442373896_4754455.eot?#iefix) format(embedded-opentype), url(http://at.alicdn.com/t/font_1442373896_4754455.woff) format(woff), url(http://at.alicdn.com/t/font_1442373896_4754455.ttf) format(truetype), url(http://at.alicdn.com/t/font_1442373896_4754455.svg#ifont) format(svg); }

]]></style></defs><g class="transform-group"><g transform="scale(0.125, 0.125)"><path d="M743.088 321.94c0-144.099-113.765-261.337-253.614-261.337-139.814 0-253.598 117.235-253.598 261.337 0 98.268 52.951 183.951 130.945 228.572-153.006 56.65-262.742 207.605-262.742 384.529 0 15.654 12.324 28.359 27.508 28.359 15.222 0 27.526-12.687 27.526-28.359 0-193.966 153.129-351.778 341.348-351.778 2.31 0 4.513-0.368 6.645-0.918 131.622-9.374 235.983-122.425 235.983-260.401M489.473 526.56c-109.479 0-198.546-91.774-198.546-204.62 0-112.827 89.068-204.603 198.546-204.603 109.495 0 198.564 91.774 198.564 204.603 0.020 112.846-89.068 204.62-198.564 204.62M542.253 674.741c0 15.638 12.338 28.359 27.526 28.359h322.606c15.222 0 27.526-12.702 27.526-28.359 0-15.654-12.304-28.359-27.526-28.359h-322.606c-15.185 0-27.526 12.702-27.526 28.359M892.38 762.35h-322.606c-15.185 0-27.526 12.687-27.526 28.375 0 15.654 12.338 28.359 27.526 28.359h322.606c15.222 0 27.526-12.687 27.526-28.359 0-15.689-12.304-28.375-27.526-28.375M892.38 892.499h-322.606c-15.185 0-27.526 12.687-27.526 28.359s12.338 28.359 27.526 28.359h322.606c15.222 0 27.526-12.687 27.526-28.359s-12.304-28.359-27.526-28.359z" fill="#3cbaff"></path></g></g></svg>