<?xml version="1.0" standalone="no"?><!DOCTYPE svg PUBLIC "-//W3C//DTD SVG 1.1//EN" "http://www.w3.org/Graphics/SVG/1.1/DTD/svg11.dtd"><svg width="200" height="200" viewBox="0 0 200 200" version="1.1" xmlns="http://www.w3.org/2000/svg" xmlns:xlink="http://www.w3.org/1999/xlink"><defs><style type="text/css"><![CDATA[
@font-face { font-family: ifont; src: url(http://at.alicdn.com/t/font_1442373896_4754455.eot?#iefix) format(embedded-opentype), url(http://at.alicdn.com/t/font_1442373896_4754455.woff) format(woff), url(http://at.alicdn.com/t/font_1442373896_4754455.ttf) format(truetype), url(http://at.alicdn.com/t/font_1442373896_4754455.svg#ifont) format(svg); }

]]></style></defs><g class="transform-group"><g transform="scale(0.1953125, 0.1953125)"><path d="M512 0C229.216 0 0 229.216 0 512c0 282.768 229.216 512 512 512s512-229.232 512-512C1024 229.216 794.784 0 512 0zM512 960C264.576 960 64 759.408 64 512 64 264.576 264.576 64 512 64s448 200.576 448 448C960 759.408 759.424 960 512 960zM784.416 512 544 512l0.016-288.464C544.016 206.112 529.664 192 512 192c-17.68 0-32 14.096-32.016 31.536L480 543.84c0 0.064-0.016 0.096-0.016 0.16S480 544.096 480 544.16l0 0.288c0 7.712 2.928 14.704 7.6 20.192C493.376 571.536 501.904 576 511.552 576l272.896 0c17.44 0 31.552-14.32 31.552-32C816.016 526.32 801.872 512 784.416 512z" fill="#3cbaff"></path></g></g></svg>